<svg width="512" height="512" viewBox="0 0 512 512" fill="none" xmlns="http://www.w3.org/2000/svg">
<rect width="512" height="512" fill="white"/>
<g id="wheelchair 1">
<g id="Group 3">
<g id="Group">
<g id="XMLID 582">
<path id="Vector" d="M371.087 448.876L340.605 349.111H229.457C213.381 349.111 200.35 336.626 200.35 321.226C200.35 305.825 213.382 293.342 229.457 293.342H362.415C375.341 293.342 386.719 301.509 390.35 313.394L426.958 433.21C431.474 447.99 422.628 463.479 407.199 467.804C391.822 472.116 375.618 463.705 371.087 448.876Z" fill="#414B82"/>
</g>
<g id="XMLID 583">
<path id="Vector_2" d="M301.176 252.674L273.043 181.537C268.297 169.535 274.604 156.121 287.133 151.575C299.663 147.027 313.664 153.071 318.409 165.073L338.627 216.194L399.828 199.329C412.704 195.783 426.141 202.903 429.845 215.236C433.548 227.57 426.114 240.444 413.24 243.992L330.566 266.774C318.482 270.103 305.668 264.032 301.176 252.674Z" fill="#FFB69E"/>
</g>
<g id="Group_2">
<path id="Vector_3" d="M436.5 494.132H306.299C297.738 494.132 290.799 487.485 290.799 479.284C290.799 471.083 297.738 464.435 306.299 464.435H436.5C445.061 464.435 452 471.083 452 479.284C452 487.485 445.061 494.132 436.5 494.132Z" fill="#46738C"/>
</g>
<path id="Vector_4" d="M330.78 150.486L282.126 133.459C260.66 125.947 236.901 136.528 229.06 157.091L173.846 301.885C169.021 314.538 172.418 330.856 188.109 336.108L215.223 345.548L320.36 293.342L355.451 201.322C363.292 180.758 352.246 157.998 330.78 150.486V150.486Z" fill="#64AFFF"/>
<path id="Vector_5" d="M375.78 132.347C401.844 118.58 411.323 87.1784 396.952 62.2097C382.581 37.2411 349.802 28.1603 323.738 41.9273C297.674 55.6942 288.195 87.0957 302.566 112.064C316.937 137.033 349.716 146.114 375.78 132.347Z" fill="#FFB69E"/>
<g id="XMLID 575">
<path id="Vector_6" d="M331.704 375.245H177.07C170.39 375.245 164.462 371.146 162.359 365.073L92.7316 164.058C90.0356 156.275 94.4368 147.871 102.561 145.288C110.684 142.705 119.459 146.922 122.155 154.705L188.258 345.547H331.703C340.263 345.547 347.203 352.194 347.203 360.395C347.204 368.596 340.264 375.245 331.704 375.245V375.245Z" fill="#3C5064"/>
</g>
<g id="XMLID 571">
<path id="Vector_7" d="M152.777 202.834C144.546 202.834 136.879 197.838 134.145 189.945L111.312 124.024C107.898 114.165 113.472 103.52 123.763 100.249C134.055 96.9783 145.166 102.318 148.581 112.178L171.414 178.098C174.828 187.957 169.254 198.602 158.963 201.873C156.912 202.524 154.826 202.834 152.777 202.834Z" fill="#46738C"/>
</g>
<g id="wheel">
<g id="Group 5">
<path id="Vector_8" d="M264.61 440.547L190.167 399.374L264.61 358.201C269.059 355.74 270.582 350.292 268.015 346.03C265.446 341.769 259.759 340.309 255.31 342.769L180.867 383.942V301.595C180.867 296.675 176.704 292.686 171.568 292.686C166.431 292.686 162.268 296.676 162.268 301.595V383.942L87.8252 342.769C83.3766 340.308 77.6886 341.769 75.1209 346.03C72.5532 350.292 74.0768 355.74 78.5254 358.201L152.968 399.374L78.5254 440.547C74.0768 443.008 72.5532 448.456 75.1209 452.717C76.8439 455.575 79.9701 457.174 83.1842 457.174C84.7621 457.174 86.3617 456.789 87.8252 455.979L162.268 414.805V497.152C162.268 502.073 166.431 506.061 171.568 506.061C176.704 506.061 180.867 502.073 180.867 497.152V414.805L255.31 455.979C256.775 456.789 258.373 457.174 259.951 457.174C263.165 457.174 266.292 455.576 268.015 452.717C270.582 448.456 269.059 443.007 264.61 440.547V440.547Z" fill="#46738C"/>
<g id="Group_3">
<g id="Group 2">
<path id="Vector_9" d="M171.568 373.958C156.915 373.958 145.037 385.337 145.037 399.373C145.037 413.41 156.915 424.789 171.568 424.789C186.22 424.789 198.098 413.41 198.098 399.373C198.098 385.337 186.22 373.958 171.568 373.958Z" fill="#87AFB9"/>
</g>
</g>
<g id="Group 4">
<g id="Group_4">
<g id="Group 1">
<path id="Vector_10" d="M171.568 512C106.741 512 54 461.476 54 399.373C54 337.271 106.741 286.747 171.568 286.747C236.395 286.747 289.135 337.271 289.135 399.373C289.135 461.476 236.394 512 171.568 512V512ZM171.568 316.444C123.834 316.444 85 353.646 85 399.373C85 445.101 123.834 482.302 171.568 482.302C219.301 482.302 258.135 445.101 258.135 399.373C258.135 353.646 219.301 316.444 171.568 316.444V316.444Z" fill="#373C41"/>
</g>
</g>
</g>
</g>
<path id="Vector_11" d="M171.568 316.46C219.292 316.46 258.119 353.655 258.119 399.373C258.119 445.091 219.292 482.287 171.568 482.287C123.843 482.287 85.0167 445.091 85.0167 399.373C85.0167 353.655 123.843 316.46 171.568 316.46V316.46ZM171.568 303.591C116.347 303.591 71.5831 346.474 71.5831 399.373C71.5831 452.273 116.348 495.156 171.568 495.156C226.787 495.156 271.552 452.273 271.552 399.373C271.552 346.474 226.787 303.591 171.568 303.591Z" fill="#2B2F33"/>
</g>
<g id="XMLID 548">
<path id="Vector_12" d="M169.629 314.643C156.647 311.475 148.805 298.825 152.111 286.389L176.178 195.893C178.265 188.044 184.467 181.804 192.546 179.421L228.594 168.79L251.152 186.058L244.89 212.61L219.828 220.002L199.122 297.862C195.822 310.277 182.632 317.817 169.629 314.643V314.643Z" fill="#FFB69E"/>
</g>
<g id="XMLID 151">
<path id="Vector_13" d="M318.909 166.467C314.966 154.202 301.391 147.32 288.59 151.096L228.596 168.79L244.892 212.609L302.864 195.512C315.667 191.736 322.85 178.732 318.909 166.467Z" fill="#4699F2"/>
</g>
</g>
</g>
</g>
</svg>
